<?xml version="1.0" standalone="no"?><!DOCTYPE svg PUBLIC "-//W3C//DTD SVG 1.1//EN" "http://www.w3.org/Graphics/SVG/1.1/DTD/svg11.dtd"><svg t="1493086785200" class="icon" style="" viewBox="0 0 1024 1024" version="1.1" xmlns="http://www.w3.org/2000/svg" p-id="3879" xmlns:xlink="http://www.w3.org/1999/xlink" width="32" height="32"><defs><style type="text/css"></style></defs><path d="M1009.850182 173.242182 544.861091 638.231273C526.522182 656.570182 496.779636 656.570182 478.440727 638.231273 460.101818 619.892364 460.101818 590.149818 478.440727 571.810909L943.429818 106.775273C961.768727 88.436364 991.511273 88.436364 1009.850182 106.775273 1028.235636 125.114182 1028.235636 154.856727 1009.850182 173.242182ZM605.090909 93.090909 139.636364 93.090909C113.943273 93.090909 93.090909 113.943273 93.090909 139.636364L93.090909 884.363636C93.090909 910.056727 113.943273 930.909091 139.636364 930.909091L744.727273 930.909091C770.420364 930.909091 791.272727 910.056727 791.272727 884.363636L791.272727 651.636364C791.272727 625.943273 812.125091 605.090909 837.818182 605.090909 863.511273 605.090909 884.363636 625.943273 884.363636 651.636364L884.363636 930.909091C884.363636 982.341818 842.705455 1024 791.272727 1024L93.090909 1024C41.658182 1024 0 982.341818 0 930.909091L0 93.090909C0 41.658182 41.658182 0 93.090909 0L605.090909 0C630.784 0 651.636364 20.852364 651.636364 46.545455 651.636364 72.238545 630.784 93.090909 605.090909 93.090909Z" p-id="3880" fill="#ffffff"></path></svg>