<?xml version="1.0" standalone="no"?><!DOCTYPE svg PUBLIC "-//W3C//DTD SVG 1.1//EN" "http://www.w3.org/Graphics/SVG/1.1/DTD/svg11.dtd"><svg t="1493086873967" class="icon" style="" viewBox="0 0 1024 1024" version="1.1" xmlns="http://www.w3.org/2000/svg" p-id="4616" xmlns:xlink="http://www.w3.org/1999/xlink" width="32" height="32"><defs><style type="text/css"></style></defs><path d="M512.174474 646.381593c92.710518 0 167.866219-76.993558 167.866219-171.954327L680.040692 236.257865c0-94.983281-75.1557-171.954327-167.866219-171.954327s-167.866219 76.971046-167.866219 171.954327l0 238.169401C344.308255 569.388035 419.463955 646.381593 512.174474 646.381593z" p-id="4617" fill="#ffffff"></path><path d="M756.246305 406.682349c-19.500123 0-35.326577 15.237029-35.326577 34.036187l0 46.62797c0 111.051235-93.693916 201.443965-208.898751 201.443965s-208.92024-90.39273-208.92024-201.443965l0-46.62797c0-18.800181-15.804964-34.036187-35.348066-34.036187-19.456121 0-35.282574 15.237029-35.282574 34.036187l0 46.62797c0 138.333602 106.635669 255.713986 245.974158 270.883477l0 156.695808-89.540316 0c-20.002566 0-44.770669 2.579755-44.770669 22.384823 0 19.763113 24.768103 22.384823 44.770669 22.384823l246.236124 0c19.980054 0 44.769646-2.622734 44.769646-22.384823 0-19.805068-24.789593-22.384823-44.769646-22.384823L545.599747 914.925792 545.599747 758.229984c134.834918-19.149129 245.929132-135.632073 245.929132-270.883477l0-46.62797C791.528879 421.918355 775.745405 406.682349 756.246305 406.682349z" p-id="4618" fill="#ffffff"></path></svg>