<?xml version="1.0" standalone="no"?><!DOCTYPE svg PUBLIC "-//W3C//DTD SVG 1.1//EN" "http://www.w3.org/Graphics/SVG/1.1/DTD/svg11.dtd"><svg t="1493521510883" class="icon" style="" viewBox="0 0 1024 1024" version="1.1" xmlns="http://www.w3.org/2000/svg" p-id="2246" xmlns:xlink="http://www.w3.org/1999/xlink" width="32" height="32"><defs><style type="text/css"></style></defs><path d="M304 928c0 17.664 14.32 32 32 32l16 0c17.664 0 32-14.336 32-32L384 96c0-17.664-14.336-32-32-32l-16 0c-17.68 0-32 14.336-32 32L304 928z" p-id="2247" fill="#ffffff"></path><path d="M640 928c0 17.664 14.336 32 32 32l16 0c17.68 0 32-14.336 32-32L720 96c0-17.664-14.32-32-32-32l-16 0c-17.664 0-32 14.336-32 32L640 928z" p-id="2248" fill="#ffffff"></path></svg>