<?xml version="1.0" standalone="no"?><!DOCTYPE svg PUBLIC "-//W3C//DTD SVG 1.1//EN" "http://www.w3.org/Graphics/SVG/1.1/DTD/svg11.dtd"><svg t="1493637561549" class="icon" style="" viewBox="0 0 1025 1024" version="1.1" xmlns="http://www.w3.org/2000/svg" p-id="8037" xmlns:xlink="http://www.w3.org/1999/xlink" width="32.03125" height="32"><defs><style type="text/css"></style></defs><path d="M512.003597 1024C229.672867 1024-1.4e-05 794.330002-1.4e-05 512.003597c0-282.33073 229.672881-512.003612 512.003612-512.003612 282.326405 0 511.999286 229.672881 511.999286 512.003612C1024.002884 794.330002 794.330002 1024 512.003597 1024L512.003597 1024zM512.003597 53.896317c-252.607153 0-458.107281 205.501569-458.107281 458.107281 0 252.602828 205.500127 458.105839 458.107281 458.105839 252.602828 0 458.108722-205.503011 458.108722-458.105839C970.112319 259.397886 764.606425 53.896317 512.003597 53.896317L512.003597 53.896317zM512.003597 53.896317" p-id="8038" fill="#6cbd74"></path><path d="M807.024807 314.100168c-10.268302-10.294254-26.865985-10.294254-37.134287 0L429.894666 654.068628 254.17002 478.34254c-10.321648-10.288487-26.946724-10.288487-37.187632 0-10.351925 10.271186-10.351925 26.896262 0 37.108335L411.248225 709.876749c10.346158 10.292812 26.942398 10.292812 37.212142 0L807.024807 351.260406C817.346455 340.990663 817.346455 324.338193 807.024807 314.100168L807.024807 314.100168 807.024807 314.100168zM807.024807 314.100168" p-id="8039" fill="#6cbd74"></path></svg>